<svg width="41" height="41" viewBox="0 0 41 41" fill="none" xmlns="http://www.w3.org/2000/svg">
<path fill-rule="evenodd" clip-rule="evenodd" d="M12.3825 33.7773C12.8842 33.7773 13.2892 34.1839 13.2892 34.6839C13.2892 35.1856 12.8842 35.5923 12.3825 35.5923C11.8808 35.5923 11.4758 35.1856 11.4758 34.6839C11.4758 34.1839 11.8808 33.7773 12.3825 33.7773Z" fill="#263682"/>
<path fill-rule="evenodd" clip-rule="evenodd" d="M31.183 33.7773C31.6847 33.7773 32.0913 34.1839 32.0913 34.6839C32.0913 35.1856 31.6847 35.5923 31.183 35.5923C30.6813 35.5923 30.2763 35.1856 30.2763 34.6839C30.2763 34.1839 30.6813 33.7773 31.183 33.7773Z" fill="#263682"/>
<path d="M5.04199 5.52295L8.50866 6.12295L10.1137 25.2446C10.242 26.8063 11.547 28.0046 13.1137 27.9996H31.2953C32.7903 28.0029 34.0587 26.9029 34.2703 25.4229L35.852 14.4929C36.0287 13.2713 35.1803 12.1379 33.9603 11.9613C33.8537 11.9463 9.06533 11.9379 9.06533 11.9379M24.0003 18.0978H28.622M12.3825 33.7773C12.8842 33.7773 13.2892 34.1839 13.2892 34.6839C13.2892 35.1856 12.8842 35.5923 12.3825 35.5923C11.8808 35.5923 11.4758 35.1856 11.4758 34.6839C11.4758 34.1839 11.8808 33.7773 12.3825 33.7773ZM31.183 33.7773C31.6847 33.7773 32.0913 34.1839 32.0913 34.6839C32.0913 35.1856 31.6847 35.5923 31.183 35.5923C30.6813 35.5923 30.2763 35.1856 30.2763 34.6839C30.2763 34.1839 30.6813 33.7773 31.183 33.7773Z" stroke="#58C2E8" stroke-width="2" stroke-linecap="round" stroke-linejoin="round"/>
</svg>
